{
  "accessors": [
    {
      "name": "11506_Lion_1_0_positions",
      "componentType": 5126,
      "count": 50476,
      "min": [
        -42.83039855957031,
        -141.14979553222656,
        -4.440999984741211
      ],
      "max": [
        40.63240051269531,
        165.3883056640625,
        169.3125
      ],
      "type": "VEC3",
      "bufferView": 0,
      "byteOffset": 0
    },
    {
      "name": "11506_Lion_1_0_normals",
      "componentType": 5126,
      "count": 50476,
      "min": [
        -0.9999971985816956,
        -0.9999963641166687,
        -0.9999938607215881
      ],
      "max": [
        0.9999971985816956,
        0.9998962879180908,
        0.9999884963035583
      ],
      "type": "VEC3",
      "bufferView": 1,
      "byteOffset": 0
    },
    {
      "name": "11506_Lion_1_0_texcoords",
      "componentType": 5126,
      "count": 50476,
      "min": [
        0.01269999984651804,
        0.012900000438094139
      ],
      "max": [
        0.9876999855041504,
        0.989300012588501
      ],
      "type": "VEC2",
      "bufferView": 2,
      "byteOffset": 0
    },
    {
      "name": "11506_Lion_1_0_indices",
      "componentType": 5123,
      "count": 292608,
      "min": [
        0
      ],
      "max": [
        50475
      ],
      "type": "SCALAR",
      "bufferView": 3,
      "byteOffset": 0
    }
  ],
  "asset": {
    "generator": "obj2gltf",
    "version": "2.0"
  },
  "buffers": [
    {
      "name": "animal",
      "byteLength": 2200448,
      "uri": "data:application/octet-stream;base64,"
    }
  ],
  "bufferViews": [
    {
      "name": "bufferView_0",
      "buffer": 0,
      "byteLength": 605712,
      "byteOffset": 0,
      "byteStride": 12,
      "target": 34962
    },
    {
      "name": "bufferView_1",
      "buffer": 0,
      "byteLength": 605712,
      "byteOffset": 605712,
      "byteStride": 12,
      "target": 34962
    },
    {
      "name": "bufferView_2",
      "buffer": 0,
      "byteLength": 403808,
      "byteOffset": 1211424,
      "byteStride": 8,
      "target": 34962
    },
    {
      "name": "bufferView_3",
      "buffer": 0,
      "byteLength": 585216,
      "byteOffset": 1615232,
      "target": 34963
    }
  ],
  "materials": [
    {
      "name": "_11506_Lion_v3_FINALdefault",
      "pbrMetallicRoughness": {
        "baseColorFactor": [
          0.5,
          0.5,
          0.5,
          1
        ],
        "metallicFactor": 0,
        "roughnessFactor": 1
      },
      "emissiveFactor": [
        0,
        0,
        0
      ],
      "alphaMode": "OPAQUE",
      "doubleSided": false
    }
  ],
  "meshes": [
    {
      "name": "11506_Lion_1",
      "primitives": [
        {
          "attributes": {
            "POSITION": 0,
            "NORMAL": 1,
            "TEXCOORD_0": 2
          },
          "indices": 3,
          "material": 0,
          "mode": 4
        }
      ]
    }
  ],
  "nodes": [
    {
      "name": "11506_Lion",
      "mesh": 0
    }
  ],
  "scene": 0,
  "scenes": [
    {
      "nodes": [
        0
      ]
    }
  ]
}
